<svg width="46" height="46" viewBox="0 0 46 46" fill="none" xmlns="http://www.w3.org/2000/svg">
<g filter="url(#filter0_d_1073_73)">
<path fill-rule="evenodd" clip-rule="evenodd" d="M23 38C33.4934 38 42 29.4934 42 19C42 8.50659 33.4934 0 23 0C12.5066 0 4 8.50659 4 19C4 29.4934 12.5066 38 23 38ZM23 28.5C28.2467 28.5 32.5 24.2467 32.5 19C32.5 13.7533 28.2467 9.5 23 9.5C17.7533 9.5 13.5 13.7533 13.5 19C13.5 24.2467 17.7533 28.5 23 28.5Z" fill="#2BE080"/>
<path d="M41.5 19C41.5 29.2173 33.2173 37.5 23 37.5C12.7827 37.5 4.5 29.2173 4.5 19C4.5 8.78273 12.7827 0.5 23 0.5C33.2173 0.5 41.5 8.78273 41.5 19ZM23 29C28.5228 29 33 24.5228 33 19C33 13.4772 28.5228 9 23 9C17.4772 9 13 13.4772 13 19C13 24.5228 17.4772 29 23 29Z" stroke="black"/>
</g>
<defs>
<filter id="filter0_d_1073_73" x="0" y="0" width="46" height="46" filterUnits="userSpaceOnUse" color-interpolation-filters="sRGB">
<feFlood flood-opacity="0" result="BackgroundImageFix"/>
<feColorMatrix in="SourceAlpha" type="matrix" values="0 0 0 0 0 0 0 0 0 0 0 0 0 0 0 0 0 0 127 0" result="hardAlpha"/>
<feOffset dy="4"/>
<feGaussianBlur stdDeviation="2"/>
<feComposite in2="hardAlpha" operator="out"/>
<feColorMatrix type="matrix" values="0 0 0 0 0 0 0 0 0 0 0 0 0 0 0 0 0 0 0.25 0"/>
<feBlend mode="normal" in2="BackgroundImageFix" result="effect1_dropShadow_1073_73"/>
<feBlend mode="normal" in="SourceGraphic" in2="effect1_dropShadow_1073_73" result="shape"/>
</filter>
</defs>
</svg>
